<?xml version="1.0" ?><!DOCTYPE svg  PUBLIC '-//W3C//DTD SVG 1.1//EN'  'http://www.w3.org/Graphics/SVG/1.1/DTD/svg11.dtd'><svg height="1.70667in" style="shape-rendering:geometricPrecision; text-rendering:geometricPrecision; image-rendering:optimizeQuality; fill-rule:evenodd; clip-rule:evenodd" version="1.1" viewBox="0 0 11878 11878" width="1.70667in" xml:space="preserve" xmlns="http://www.w3.org/2000/svg" xmlns:xlink="http://www.w3.org/1999/xlink"><defs><style type="text/css">
   <![CDATA[
    .fil0 {fill:none}
    .fil1 {fill:black;fill-rule:nonzero}
   ]]>
  </style></defs><g id="Layer_x0020_1"><rect class="fil0" height="11878" width="11878"/><g id="_1053200344"><path class="fil1" d="M7354 4054c-220,-251 -618,-359 -1126,-359l-1477 0c-104,0 -193,76 -209,179l-615 3899c-12,77 48,147 126,147l911 0 229 -1453 -7 46c16,-103 104,-178 208,-178l433 0c851,0 1518,-346 1712,-1346 6,-30 15,-87 15,-87 56,-370 0,-621 -200,-848z"/><path class="fil1" d="M7785 5092c-212,984 -887,1505 -1958,1505l-388 0 -290 1850 630 0c91,0 169,-66 183,-156l7 -39 145 -918 9 -51c15,-90 92,-156 183,-156l115 0c744,0 1327,-303 1498,-1177 68,-351 35,-645 -134,-858z"/></g></g></svg>