<?xml version="1.0" ?><!DOCTYPE svg  PUBLIC '-//W3C//DTD SVG 1.1//EN'  'http://www.w3.org/Graphics/SVG/1.1/DTD/svg11.dtd'><svg height="1.70667in" style="shape-rendering:geometricPrecision; text-rendering:geometricPrecision; image-rendering:optimizeQuality; fill-rule:evenodd; clip-rule:evenodd" version="1.1" viewBox="0 0 11878 11878" width="1.70667in" xml:space="preserve" xmlns="http://www.w3.org/2000/svg" xmlns:xlink="http://www.w3.org/1999/xlink"><defs><style type="text/css">
   <![CDATA[
    .fil0 {fill:none}
    .fil1 {fill:black;fill-rule:nonzero}
   ]]>
  </style></defs><g id="Layer_x0020_1"><rect class="fil0" height="11878" width="11878"/><path class="fil1" d="M8193 3187c-882,-29 -1479,469 -1792,1494 161,-69 318,-104 471,-104 323,0 466,182 428,545 -19,220 -162,540 -428,961 -267,421 -467,631 -600,631 -172,0 -329,-323 -471,-972 -49,-191 -134,-677 -258,-1459 -114,-725 -419,-1064 -914,-1016 -210,19 -524,210 -943,571 -305,277 -615,553 -929,829l300 386c285,-200 452,-300 499,-300 219,0 423,343 613,1028 171,628 343,1255 514,1884 256,685 570,1027 941,1027 599,0 1330,-562 2196,-1687 836,-1077 1269,-1926 1297,-2545 38,-830 -270,-1254 -924,-1273z"/></g></svg>