<?xml version="1.0" ?><!DOCTYPE svg  PUBLIC '-//W3C//DTD SVG 1.1//EN'  'http://www.w3.org/Graphics/SVG/1.1/DTD/svg11.dtd'><svg height="1.70667in" style="shape-rendering:geometricPrecision; text-rendering:geometricPrecision; image-rendering:optimizeQuality; fill-rule:evenodd; clip-rule:evenodd" version="1.1" viewBox="0 0 8379 8379" width="1.70667in" xml:space="preserve" xmlns="http://www.w3.org/2000/svg" xmlns:xlink="http://www.w3.org/1999/xlink"><defs><style type="text/css">
   <![CDATA[
    .fil0 {fill:none}
    .fil1 {fill:black}
   ]]>
  </style></defs><g id="Layer_x0020_1"><rect class="fil0" height="8379" width="8379"/><g id="_899307880"><path class="fil1" d="M6460 4075c-30,-1197 -1016,-2158 -2229,-2158 -1199,0 -2176,939 -2229,2117 -1,32 -2,65 -2,97 0,419 117,809 320,1143l-402 1188 1235 -393c320,175 687,276 1078,276 1232,0 2230,-991 2230,-2214 0,-19 0,-38 -1,-56zm-2229 1917l0 0c-381,0 -735,-113 -1032,-308l-720 229 233 -691c-224,-307 -357,-684 -357,-1091 0,-61 3,-121 10,-181 92,-942 894,-1680 1866,-1680 984,0 1794,757 1869,1716 4,48 6,96 6,145 0,1026 -842,1861 -1875,1861z"/><path class="fil1" d="M5253 4578c-55,-27 -324,-159 -374,-177 -50,-18 -87,-27 -123,28 -37,54 -142,176 -173,211 -33,37 -64,41 -119,14 -55,-27 -231,-83 -440,-269 -162,-143 -273,-321 -304,-375 -31,-54 -3,-84 24,-111 25,-25 54,-64 83,-95 7,-9 13,-18 19,-26 13,-20 22,-39 35,-65 19,-36 9,-68 -4,-95 -14,-27 -123,-294 -169,-403 -45,-108 -91,-90 -124,-90 -31,0 -68,-5 -104,-5 -37,0 -96,14 -146,68 -50,54 -191,186 -191,453 0,63 11,125 28,185 55,191 174,349 195,376 27,35 378,601 934,820 556,216 556,144 656,134 101,-8 324,-130 369,-258 46,-126 46,-235 32,-258 -13,-21 -50,-35 -104,-62z"/></g></g></svg>